<?xml version="1.0" standalone="no"?>
<!DOCTYPE svg PUBLIC "-//W3C//DTD SVG 20010904//EN"
 "http://www.w3.org/TR/2001/REC-SVG-20010904/DTD/svg10.dtd">
<svg version="1.0" xmlns="http://www.w3.org/2000/svg"
 width="500.000000pt" height="500.000000pt" viewBox="0 0 500.000000 500.000000"
 preserveAspectRatio="xMidYMid meet">
<metadata>
Created by potrace 1.14, written by Peter Selinger 2001-2017
</metadata>
<g transform="translate(0.000000,500.000000) scale(0.100000,-0.100000)"
fill="#000000" stroke="none">
<path d="M200 4818 c0 -5 -4 -6 -10 -3 -21 13 -8 -43 26 -113 20 -40 37 -84
38 -97 0 -14 4 -25 7 -25 5 0 35 -118 45 -180 2 -8 5 -28 8 -45 16 -83 20
-127 20 -205 0 -67 -5 -94 -21 -125 -15 -29 -19 -46 -12 -58 6 -9 7 -17 4 -17
-3 0 -1 -9 5 -20 15 -28 49 -158 43 -164 -3 -3 -1 -11 3 -18 9 -15 11 -24 20
-138 10 -129 8 -194 -10 -330 -4 -29 -35 -111 -48 -124 -24 -28 -7 -64 71
-143 97 -99 142 -186 146 -279 3 -88 -4 -126 -26 -131 -27 -7 -29 -55 -3 -84
8 -9 11 -19 7 -22 -3 -4 -2 -7 4 -7 6 0 24 -42 41 -92 29 -88 35 -109 47 -175
3 -16 8 -39 11 -53 9 -36 15 -87 17 -147 1 -29 5 -53 8 -53 7 0 3 -56 -6 -69
-3 -6 -2 -11 3 -11 15 0 3 -71 -19 -106 -18 -30 -25 -35 -48 -29 -14 4 -27 11
-29 16 -2 5 -8 9 -14 9 -16 0 -94 85 -140 152 -44 65 -125 210 -135 241 -3 9
-9 17 -14 17 -5 0 -9 8 -9 18 0 10 -6 26 -14 37 -7 11 -14 22 -14 25 0 3 -5
16 -10 30 -6 14 -15 44 -21 66 -6 23 -18 45 -27 48 -19 7 -50 -9 -63 -33 -13
-24 -25 -103 -25 -173 -1 -32 -5 -58 -11 -58 -5 0 -3 -5 5 -10 11 -7 11 -10 2
-10 -7 0 -10 -4 -7 -10 3 -5 8 -22 10 -37 15 -113 39 -191 93 -303 73 -150
135 -238 209 -294 l41 -32 -30 -65 c-27 -58 -49 -106 -53 -119 -1 -3 -4 -12
-8 -20 -17 -44 -57 -180 -61 -210 -3 -19 -8 -46 -11 -60 -15 -68 -26 -330 -15
-330 3 0 6 -13 6 -29 2 -37 41 -118 84 -174 52 -68 199 -219 245 -252 16 -11
34 -26 41 -32 7 -7 15 -13 18 -13 3 0 27 -13 53 -28 26 -16 69 -34 96 -41 26
-8 50 -18 53 -23 3 -4 9 -6 14 -3 18 11 48 -14 43 -35 -5 -20 -4 -20 1632 -20
l1637 0 -5 21 c-5 20 14 33 62 43 9 2 30 9 46 15 17 7 35 14 40 15 19 3 129
68 170 100 48 37 163 153 214 216 20 25 39 46 44 48 4 2 7 9 7 15 0 6 7 18 16
28 8 9 16 24 18 32 1 8 7 22 14 30 23 28 32 205 17 337 -8 76 -13 105 -15 105
-1 0 -3 14 -5 30 -2 36 -70 246 -93 290 -9 17 -17 32 -17 35 -1 3 -10 23 -20
45 -22 47 -27 67 -14 60 11 -8 107 87 146 145 101 150 175 337 188 482 2 20 6
42 10 48 3 5 2 10 -2 10 -5 0 -9 9 -9 20 0 11 4 20 9 20 4 0 5 6 0 13 -4 6 -9
32 -10 57 -1 25 -2 45 -3 45 -2 0 -4 9 -6 20 -8 51 -12 60 -37 78 -14 11 -32
17 -40 14 -14 -5 -53 -111 -49 -129 1 -5 -3 -8 -8 -8 -5 0 -9 -3 -8 -7 1 -5
-6 -25 -15 -46 -9 -20 -16 -40 -16 -44 1 -3 -3 -9 -8 -12 -5 -3 -24 -35 -42
-71 -19 -36 -39 -68 -45 -72 -6 -4 -7 -8 -3 -8 12 0 -90 -147 -132 -190 -20
-21 -54 -49 -77 -63 l-41 -25 -26 31 c-22 26 -27 43 -28 92 -1 33 -1 62 -1 65
0 3 3 37 6 75 10 121 20 177 51 302 24 92 71 212 88 224 5 4 11 19 12 34 2 15
1 24 -2 21 -7 -6 -27 13 -40 39 -14 29 -6 195 10 195 4 0 6 4 3 8 -3 5 10 32
27 61 18 30 36 62 42 72 5 11 12 19 16 19 3 0 30 24 60 53 59 58 70 89 46 134
-35 68 -44 101 -53 193 -5 53 -5 198 1 255 8 91 20 171 29 195 3 8 8 26 10 40
3 14 14 52 24 85 l20 59 -22 36 c-19 30 -22 48 -20 125 1 50 5 104 7 120 19
121 19 121 37 200 21 95 53 189 86 254 36 72 34 86 -18 95 -21 3 -34 -4 -65
-37 -38 -41 -78 -94 -98 -129 -5 -10 -33 -55 -61 -100 -28 -46 -75 -128 -104
-183 -123 -235 -133 -250 -248 -370 -37 -39 -68 -76 -70 -83 -1 -7 8 -17 21
-23 18 -8 23 -19 25 -57 2 -26 5 -60 7 -77 12 -95 17 -135 20 -180 2 -27 4
-50 5 -50 1 0 2 -43 4 -96 2 -97 2 -97 -19 -83 -54 36 -64 -21 -68 -383 l-1
-171 -26 3 c-37 3 -60 15 -60 31 0 8 -4 14 -10 14 -5 0 -10 4 -10 9 0 6 -14
30 -30 54 -17 25 -30 50 -30 56 0 6 -4 11 -10 11 -5 0 -10 6 -10 14 0 7 -11
29 -24 48 -13 20 -21 41 -17 47 11 18 0 278 -14 331 -1 3 -5 25 -10 50 -5 25
-9 47 -10 50 -19 81 -18 91 18 129 41 43 87 114 87 136 0 8 4 15 8 15 5 0 9 6
10 13 2 23 14 82 18 86 2 2 -1 12 -7 22 -7 13 -5 29 5 53 8 19 12 37 9 40 -3
2 -1 11 3 18 4 7 9 19 10 28 1 8 4 35 8 59 7 44 9 179 2 216 -18 106 -75 198
-166 268 -31 24 -138 72 -153 68 -4 0 -17 3 -27 9 -14 8 -20 8 -20 0 0 -6 -5
-8 -12 -4 -11 7 -51 9 -63 4 -3 -1 -8 -3 -12 -5 -32 -8 -66 -28 -92 -54 -34
-33 -35 -32 -45 22 -9 47 -64 155 -85 166 -27 14 -82 -5 -79 -27 0 -4 -1 -9
-2 -12 -1 -3 -3 -14 -5 -25 -3 -18 -6 -35 -21 -105 -3 -14 -7 -34 -9 -45 -2
-11 -7 -31 -10 -45 -3 -14 -8 -32 -10 -40 -2 -8 -4 -16 -5 -17 -2 -2 -3 -6 -4
-10 -16 -70 -38 -113 -57 -113 -11 0 -19 4 -19 8 0 5 -6 9 -12 9 -7 1 -38 11
-68 22 -96 37 -227 61 -415 77 -148 12 -382 -1 -545 -31 -76 -14 -219 -57
-245 -75 -5 -3 -19 -6 -30 -6 -16 1 -25 18 -48 96 -15 52 -30 107 -32 123 -3
15 -7 41 -10 59 -3 17 -8 35 -11 39 -2 4 -5 24 -6 44 -1 19 -6 35 -11 35 -6 0
-8 3 -4 6 3 3 -3 15 -13 26 -17 18 -23 19 -48 9 -23 -10 -63 -57 -68 -81 0 -3
-4 -12 -7 -20 -3 -8 -14 -39 -23 -68 l-17 -53 -21 26 c-39 49 -144 83 -190 62
-11 -6 -16 -5 -13 1 10 14 -97 -24 -146 -53 -102 -59 -194 -189 -201 -284 -2
-21 -6 -43 -10 -49 -4 -7 -1 -12 6 -12 8 0 9 -3 3 -8 -11 -7 -16 -92 -6 -92 3
0 7 -19 7 -43 1 -51 10 -93 30 -152 10 -30 12 -51 6 -62 -21 -39 45 -202 109
-272 27 -30 29 -38 23 -80 -3 -25 -13 -73 -21 -106 -10 -39 -16 -123 -18 -239
-3 -163 -5 -182 -24 -207 -12 -16 -21 -30 -21 -33 0 -12 -90 -153 -107 -168
-10 -9 -29 -15 -43 -14 l-25 1 0 177 c0 98 -2 178 -5 178 -3 0 -5 34 -5 76 0
76 -15 134 -34 134 -5 0 -16 -7 -25 -15 -8 -8 -16 -15 -18 -15 -6 0 0 185 7
245 4 28 8 73 10 100 2 28 4 50 5 50 3 0 12 90 13 122 0 23 6 34 23 42 13 6
24 16 24 22 0 6 -33 45 -74 88 -75 76 -152 171 -139 171 3 0 -1 8 -9 18 -8 9
-42 69 -75 132 -33 63 -69 131 -80 150 -45 79 -106 176 -121 193 -8 9 -11 17
-7 17 4 0 -2 8 -13 19 -12 10 -22 23 -22 28 0 18 -78 85 -104 87 -14 2 -26 -1
-26 -6z m766 -2152 c69 -74 94 -106 94 -120 0 -5 -3 -7 -6 -3 -3 3 -20 -7 -38
-23 -17 -17 -34 -30 -37 -30 -8 0 -56 108 -74 167 -29 94 -18 95 61 9z m3150
32 c-6 -35 -40 -128 -59 -163 -6 -11 -11 -24 -12 -30 0 -18 -22 -10 -59 21
l-37 32 28 33 c28 34 87 100 111 125 23 23 34 16 28 -18z"/>
</g>
</svg>
